<svg xmlns="http://www.w3.org/2000/svg" viewBox="0 0 63.19 63.5"><defs><style>.cls-1{fill:#d7d8dc;opacity:0.6;}</style></defs><title>icon</title><g id="Layer_2" data-name="Layer 2"><g id="Capa_1" data-name="Capa 1"><path class="cls-1" d="M26.85,57.48l.67-.72.65-.74,3.58,3.58L35.33,56l.65.74.67.72C40,61,44,64.27,46.89,63.34c2.2-.7,3.26-3.35,3.26-8.1,0-1.89-.07-3.65-.22-5.31,1.65.16,3.42.23,5.3.23,4.64,0,7.2-1,7.83-3.14.83-2.75-2.43-6.57-6.1-9.84l-.74-.65-.76-.64,4.14-4.14-4.14-4.14.76-.63.74-.65c3.67-3.28,6.93-7.1,6.1-9.85-.63-2.11-3.19-3.14-7.83-3.14-1.88,0-3.65.07-5.3.23.15-1.66.22-3.42.22-5.31,0-4.75-1.06-7.4-3.26-8.1C44-.77,40,2.49,36.65,6L36,6.74l-.65.74L31.75,3.9,28.17,7.48l-.65-.74L26.85,6C23.53,2.49,19.52-.77,16.62.16c-2.21.7-3.28,3.35-3.28,8.1,0,1.89.08,3.65.23,5.31-1.65-.16-3.42-.23-5.3-.23-4.75,0-7.41,1.07-8.11,3.28A3.39,3.39,0,0,0,0,17.67c0,2.78,2.9,6.25,6,9.18l.72.67.74.66L3.9,31.75l3.58,3.58L6.74,36,6,36.66C2.49,40-.76,44,.16,46.88c.7,2.21,3.36,3.28,8.11,3.28,1.88,0,3.65-.07,5.3-.23-.15,1.66-.23,3.42-.23,5.31,0,4.75,1.07,7.4,3.28,8.1C19.52,64.27,23.53,61,26.85,57.48Zm-9.58,3.8c-1.12-.36-1.76-2.56-1.76-6,0-1.83.06-3.71.24-5.56,1-.13,1.91-.29,2.8-.49.39-.08.76-.18,1.13-.27s.73-.19,1.08-.31c5.71-1.73,9.33-4.93,11-9.72,1.67,4.79,5.28,8,11,9.72.36.12.72.22,1.09.31s.75.19,1.13.27c.88.2,1.81.36,2.78.49A55.39,55.39,0,0,1,48,55.24c0,3.47-.64,5.68-1.76,6-1.7.53-4.89-2-8-5.35-.23-.23-.45-.48-.67-.73s-.45-.49-.66-.73a68.06,68.06,0,0,1-4.25-5.36l-.88-1.24-.89,1.24a60.79,60.79,0,0,1-4.22,5.38,9.29,9.29,0,0,1-.65.74l-.66.73C21.41,60.09,18.45,61.65,17.27,61.28ZM8.27,48c-3.49,0-5.68-.64-6-1.76-.54-1.69,2-4.89,5.35-8l.72-.67L9,36.88a65.81,65.81,0,0,1,5.36-4.25l1.24-.88-1.24-.88A62.71,62.71,0,0,1,9,26.65c-.26-.22-.5-.44-.74-.66s-.49-.45-.72-.67c-4.14-3.92-5.7-6.88-5.33-8s2.56-1.76,6-1.76c1.82,0,3.69.05,5.54.23.14,1,.3,1.92.51,2.81a10.92,10.92,0,0,0,.27,1.13q.13.55.3,1.08c1.72,5.71,4.93,9.33,9.73,11-4.8,1.66-8,5.28-9.73,11-.11.35-.21.71-.31,1.08s-.19.75-.27,1.13c-.2.88-.36,1.81-.49,2.78A55.33,55.33,0,0,1,8.27,48Zm9-45.76c1.7-.54,4.89,2,8,5.34l.67.72c.22.24.43.49.65.74a65.61,65.61,0,0,1,4.24,5.36l.89,1.24.88-1.24A67,67,0,0,1,36.85,9c.22-.26.44-.5.66-.74s.44-.49.67-.72c3.92-4.14,6.88-5.7,8-5.32S48,4.79,48,8.26c0,1.83-.05,3.7-.23,5.55-1,.13-1.92.3-2.82.5-.38.08-.75.17-1.12.27s-.73.19-1.09.31c-5.7,1.73-9.31,4.93-11,9.73-1.66-4.8-5.28-8-11-9.73a9.55,9.55,0,0,0-1.08-.3c-.37-.11-.74-.2-1.13-.28-.88-.2-1.81-.36-2.78-.49a55.39,55.39,0,0,1-.26-5.56C15.51,4.79,16.15,2.58,17.27,2.23Zm38,13.28c4.76,0,5.61,1.11,5.76,1.59a1.12,1.12,0,0,1,0,.32c0,1.27-1.71,3.92-5.59,7.39h0l-.74.64-.75.64a77.5,77.5,0,0,1-6.46,4.76l-1.36.9,1.36.9a77.5,77.5,0,0,1,6.46,4.76l.76.64.74.65c4.23,3.78,5.89,6.58,5.55,7.7-.15.48-1,1.59-5.76,1.59-1.83,0-3.7-.05-5.54-.23-.14-1-.31-1.91-.51-2.8-.08-.39-.16-.76-.26-1.13s-.2-.74-.31-1.09c-1.72-5.71-4.93-9.33-9.73-11,4.8-1.66,8-5.28,9.73-11,.11-.35.21-.71.31-1.08s.18-.75.26-1.13c.2-.88.36-1.81.5-2.78A55.18,55.18,0,0,1,55.23,15.51ZM46.76,47.38l-1.18-.22c-.38-.08-.75-.17-1.13-.27-6.22-1.59-11.21-5.38-11.59-14,5.59.21,11.53,2.17,14,11.66.09.36.19.74.27,1.13s.15.76.22,1.16l.12.69Zm-28.9-.27-1.16.22-.69.12c0-.23.07-.47.11-.69.07-.4.14-.79.22-1.18s.17-.75.27-1.12c1.6-6.22,5.39-11.22,14-11.6-.21,5.6-2.16,11.54-11.66,14Zm-1.12-31,1.18.22c.38.08.75.17,1.13.27,6.21,1.59,11.2,5.38,11.59,14C25,30.44,19.1,28.49,16.66,19c-.09-.36-.18-.74-.26-1.13s-.16-.76-.23-1.16c0-.22-.08-.45-.11-.69Zm28.89.27,1.17-.22.69-.12c0,.24-.07.47-.11.7-.07.4-.14.78-.23,1.17s-.16.75-.26,1.13c-1.6,6.22-5.39,11.2-14,11.59.21-5.59,2.17-11.53,11.66-14Z"/></g></g></svg>