<svg xmlns="http://www.w3.org/2000/svg" viewBox="0 0 372.26 63.75"><defs><style>.cls-1{fill:#fff;}.cls-2{fill:#e1af47;}.cls-3{fill:#487b64;}</style></defs><title>logo</title><g id="Layer_2" data-name="Layer 2"><g id="Capa_1" data-name="Capa 1"><path class="cls-1" d="M111.79,44.59l-2.17-6.1H96.8l-2.22,6.1H89.75l11.83-33.1h3.21l11.82,33.1ZM108,34l-4.83-13.43L98.41,34Z"/><path class="cls-1" d="M143.14,43.36a9,9,0,0,1-2.88,7,11.1,11.1,0,0,1-7.57,2.41h-.52c-4.87,0-8.32-1.94-9.74-5.48l4.21-1.71c.71,1.75,2.55,2.65,5.53,2.65h.52A7,7,0,0,0,137.28,47a4.55,4.55,0,0,0,1.32-3.6v0a12.41,12.41,0,0,1-5.91,1.28c-3.17,0-5.72-.8-7.52-2.41a9,9,0,0,1-2.88-7v-6.1a9,9,0,0,1,2.88-7,11.22,11.22,0,0,1,7.52-2.42A12,12,0,0,1,138.6,21V19.62h4.54Zm-15-17.87a4.48,4.48,0,0,0-1.32,3.59v6.1a4.52,4.52,0,0,0,1.32,3.6,6.87,6.87,0,0,0,4.54,1.27,7,7,0,0,0,4.59-1.27,4.49,4.49,0,0,0,1.32-3.6v-6.1a4.45,4.45,0,0,0-1.32-3.59,7,7,0,0,0-4.59-1.33A6.87,6.87,0,0,0,128.15,25.49Z"/><path class="cls-1" d="M162.58,24.16A7,7,0,0,0,158,25.44,4.71,4.71,0,0,0,156.67,29V44.59h-4.54v-25h4.54V20.9a12.56,12.56,0,0,1,5.91-1.28h2v4.54Z"/><path class="cls-1" d="M176.72,14.23A2.78,2.78,0,0,1,174,17a2.81,2.81,0,0,1-2.75-2.75A2.78,2.78,0,0,1,174,11.49,2.74,2.74,0,0,1,176.72,14.23Zm-5,30.36v-25h4.54v25Z"/><path class="cls-2" d="M197.43,11.49c5.39,0,9.18,2.7,10.55,7.57l-2.89.8c-1-3.55-3.59-5.34-7.66-5.34h-.57c-2.69,0-4.82.56-6.19,1.65a5.22,5.22,0,0,0-1.94,4.35,5.24,5.24,0,0,0,1.94,4.4,10.3,10.3,0,0,0,6.19,1.61c3.46,0,6.15.75,8.09,2.27a8.2,8.2,0,0,1,3.12,6.76A8.2,8.2,0,0,1,205,42.32c-1.94,1.52-4.63,2.27-8.09,2.27h-.52c-5.43,0-9.17-2.69-10.59-7.52l2.93-.85c1,3.55,3.6,5.35,7.66,5.35h.52A10.48,10.48,0,0,0,203.11,40a5.34,5.34,0,0,0,1.94-4.4,5.23,5.23,0,0,0-1.94-4.35,10.13,10.13,0,0,0-6.25-1.66c-3.4,0-6.14-.75-8.08-2.27a8.21,8.21,0,0,1-3.07-6.76,8.36,8.36,0,0,1,3.07-6.76,13.28,13.28,0,0,1,8.08-2.27Z"/><path class="cls-2" d="M232.14,22.41a8.55,8.55,0,0,1,2.74,6.72v6.43a8.53,8.53,0,0,1-2.74,6.71,10.86,10.86,0,0,1-7.33,2.32,11,11,0,0,1-7.37-2.32,8.53,8.53,0,0,1-2.75-6.71V29.13a8.55,8.55,0,0,1,2.75-6.72,11,11,0,0,1,7.37-2.31A10.91,10.91,0,0,1,232.14,22.41Zm-12.72,2.27a5.67,5.67,0,0,0-1.7,4.45v6.43a5.63,5.63,0,0,0,1.7,4.44,8,8,0,0,0,5.39,1.57A7.89,7.89,0,0,0,230.16,40a5.63,5.63,0,0,0,1.7-4.44V29.13a5.67,5.67,0,0,0-1.7-4.45,8,8,0,0,0-5.35-1.56A8.06,8.06,0,0,0,219.42,24.68Z"/><path class="cls-2" d="M245.48,35.56a8.33,8.33,0,0,0,1.09,4.68,3.21,3.21,0,0,0,2.79,1.33v3a6.18,6.18,0,0,1-5.25-2.6,10.93,10.93,0,0,1-1.66-6.43V11.49h3Z"/><path class="cls-2" d="M273.19,44.59V42.51a13,13,0,0,1-14.47-.24A8.53,8.53,0,0,1,256,35.56V20.1h3V35.56A5.66,5.66,0,0,0,260.75,40a9.88,9.88,0,0,0,10.69,0,5.66,5.66,0,0,0,1.75-4.44V20.1h3V44.59Z"/><path class="cls-2" d="M300.19,21.37a7.6,7.6,0,0,1,3.6,4L301,26.48A4.64,4.64,0,0,0,298.77,24a9.74,9.74,0,0,0-4.39-.9A8,8,0,0,0,289,24.68a5.64,5.64,0,0,0-1.71,4.45v6.43A5.61,5.61,0,0,0,289,40a8,8,0,0,0,5.39,1.57,9.88,9.88,0,0,0,4.39-.9A4.64,4.64,0,0,0,301,38.21l2.84,1.13a7.55,7.55,0,0,1-3.6,4,12,12,0,0,1-5.81,1.28A11,11,0,0,1,287,42.27a8.53,8.53,0,0,1-2.74-6.71V29.13A8.55,8.55,0,0,1,287,22.41a11,11,0,0,1,7.38-2.31A12.14,12.14,0,0,1,300.19,21.37Z"/><path class="cls-2" d="M315.8,13.48a2,2,0,1,1-2-2A1.94,1.94,0,0,1,315.8,13.48Zm-3.5,31.11V20.1h3V44.59Z"/><path class="cls-2" d="M341.29,22.41A8.58,8.58,0,0,1,344,29.13v6.43a8.56,8.56,0,0,1-2.74,6.71A10.86,10.86,0,0,1,334,44.59a11,11,0,0,1-7.38-2.32,8.53,8.53,0,0,1-2.74-6.71V29.13a8.55,8.55,0,0,1,2.74-6.72A11.05,11.05,0,0,1,334,20.1,10.91,10.91,0,0,1,341.29,22.41Zm-12.72,2.27a5.64,5.64,0,0,0-1.71,4.45v6.43A5.61,5.61,0,0,0,328.57,40,8,8,0,0,0,334,41.57,7.87,7.87,0,0,0,339.3,40a5.6,5.6,0,0,0,1.7-4.44V29.13a5.64,5.64,0,0,0-1.7-4.45A7.92,7.92,0,0,0,334,23.12,8,8,0,0,0,328.57,24.68Zm1.7-6.95-1-2.12,8.37-4.17,1.09,2.08Z"/><path class="cls-2" d="M369.52,22.41a8.55,8.55,0,0,1,2.74,6.72V44.59h-3V29.13a5.64,5.64,0,0,0-1.71-4.45,7.92,7.92,0,0,0-5.34-1.56,8.06,8.06,0,0,0-5.39,1.56,5.64,5.64,0,0,0-1.7,4.45V44.59h-3V20.1h3v2.08a11.2,11.2,0,0,1,7.09-2.08A10.91,10.91,0,0,1,369.52,22.41Z"/><rect class="cls-2" x="11.17" y="10.86" width="41.72" height="41.72" transform="translate(31.81 -13.36) rotate(45)"/><path class="cls-3" d="M32,62.63,1.13,31.72,32,.82l30.9,30.9ZM3.94,31.72,32,59.82l28.09-28.1L32,3.63Z"/><path class="cls-3" d="M49.51,8c0,19.09-7.83,23.69-17.48,23.69S14.55,27.12,14.55,8,32,15.25,32,15.25,49.51-11.06,49.51,8Z"/><path class="cls-2" d="M32,32.81C19.36,32.81,13.46,24.94,13.46,8c0-4.67,1-7.26,3.16-7.9C21.3-1.28,29.05,9,32,13.31,35,9,42.77-1.28,47.44.13,49.57.77,50.6,3.36,50.6,8,50.6,24.94,44.7,32.81,32,32.81ZM17.57,2.18a1.55,1.55,0,0,0-.32,0c-.48.15-1.61,1-1.61,5.81,0,20,8.76,22.6,16.39,22.6,14.52,0,16.39-12.08,16.39-22.6,0-4.8-1.13-5.66-1.61-5.81-1.67-.5-7.07,3.4-13.87,13.64L32,17.23l-.91-1.37C24.7,6.2,19.53,2.18,17.57,2.18Z"/><path class="cls-3" d="M14.55,55.41c0-19.09,7.83-23.69,17.48-23.69s17.48,4.6,17.48,23.69S32,49.87,32,49.87,14.55,74.51,14.55,55.41Z"/><path class="cls-2" d="M17.83,63.75a3.47,3.47,0,0,1-1.07-.16c-2.22-.71-3.3-3.38-3.3-8.18,0-16.9,5.9-24.78,18.57-24.78S50.6,38.51,50.6,55.41c0,4.8-1.08,7.47-3.3,8.18C42.59,65.09,35,55.65,32,51.73,29.32,55.37,22.56,63.75,17.83,63.75ZM32,48l.89,1.26c4,5.64,10.91,13.17,13.72,12.27,1.13-.36,1.78-2.58,1.78-6.1,0-20-8.76-22.6-16.39-22.6-14.52,0-16.39,12.08-16.39,22.6,0,3.52.65,5.74,1.78,6.1,1.7.54,7.08-2.91,13.72-12.27Z"/><path class="cls-3" d="M8.34,14.24C27.43,14.24,32,22.07,32,31.72S27.43,49.2,8.34,49.2s5.54-17.48,5.54-17.48S-10.75,14.24,8.34,14.24Z"/><path class="cls-2" d="M8.34,50.29C3.54,50.29.87,49.21.16,47-1.34,42.27,8.1,34.65,12,31.72,8.1,28.8-1.34,21.17.16,16.45c.71-2.22,3.38-3.3,8.18-3.3,16.91,0,24.78,5.9,24.78,18.57S25.25,50.29,8.34,50.29Zm0-34.95c-3.52,0-5.74.64-6.1,1.78-.54,1.69,2.91,7.07,12.27,13.71l1.26.89-1.26.89c-5.63,4-13.17,10.9-12.27,13.72.36,1.13,2.58,1.78,6.1,1.78,20,0,22.6-8.76,22.6-16.39C30.94,17.2,18.86,15.34,8.34,15.34Z"/><path class="cls-3" d="M55.72,49.2C36.63,49.2,32,41.37,32,31.72s4.6-17.48,23.69-17.48-5.54,17.48-5.54,17.48S74.81,49.2,55.72,49.2Z"/><path class="cls-2" d="M55.72,50.29c-16.91,0-24.78-5.9-24.78-18.57s7.87-18.57,24.78-18.57c4.8,0,7.47,1.08,8.18,3.3C65.4,21.17,56,28.8,52,31.72,56,34.65,65.4,42.27,63.9,47,63.19,49.21,60.52,50.29,55.72,50.29Zm0-34.95c-20,0-22.6,8.75-22.6,16.38,0,14.52,12.08,16.39,22.6,16.39,3.52,0,5.74-.65,6.1-1.78.54-1.7-2.91-7.08-12.27-13.72l-1.26-.89,1.26-.89c5.63-4,13.16-10.9,12.27-13.71C61.46,16,59.23,15.34,55.72,15.34Z"/><path class="cls-2" d="M32,32.81C19.36,32.81,13.46,24.94,13.46,8c0-4.67,1-7.26,3.16-7.9C21.3-1.28,29.05,9,32,13.31,35,9,42.77-1.28,47.44.13,49.57.77,50.6,3.36,50.6,8,50.6,24.94,44.7,32.81,32,32.81ZM17.57,2.18a1.55,1.55,0,0,0-.32,0c-.48.15-1.61,1-1.61,5.81,0,20,8.76,22.6,16.39,22.6,14.52,0,16.39-12.08,16.39-22.6,0-4.8-1.13-5.66-1.61-5.81-1.67-.5-7.07,3.4-13.87,13.64L32,17.23l-.91-1.37C24.7,6.2,19.53,2.18,17.57,2.18Z"/><path class="cls-2" d="M17.83,63.75a3.47,3.47,0,0,1-1.07-.16c-2.22-.71-3.3-3.38-3.3-8.18,0-16.9,5.9-24.78,18.57-24.78S50.6,38.51,50.6,55.41c0,4.8-1.08,7.47-3.3,8.18C42.59,65.09,35,55.65,32,51.73,29.32,55.37,22.56,63.75,17.83,63.75ZM32,48l.89,1.26c4,5.64,10.91,13.17,13.72,12.27,1.13-.36,1.78-2.58,1.78-6.1,0-20-8.76-22.6-16.39-22.6-14.52,0-16.39,12.08-16.39,22.6,0,3.52.65,5.74,1.78,6.1,1.7.54,7.08-2.91,13.72-12.27Z"/></g></g></svg>